<svg width="23" height="23" viewBox="0 0 23 23" fill="none" xmlns="http://www.w3.org/2000/svg">
<g id="Group">
<path id="Vector" d="M11.548 0C5.23383 0 0.0959473 5.13645 0.0959473 11.4513C0.0959473 17.7662 5.23383 22.9026 11.548 22.9026C17.8621 22.9026 23 17.7662 23 11.4513C23 5.13645 17.8621 0 11.548 0ZM11.548 22.1399C5.65448 22.1399 0.86013 17.3448 0.86013 11.4513C0.86013 5.55782 5.65448 0.762754 11.548 0.762754C17.4415 0.762754 22.2358 5.55782 22.2358 11.4513C22.2358 17.3448 17.4415 22.1399 11.548 22.1399Z" fill="white"/>
<path id="Vector_2" d="M14.0477 5.02357H12.1422C9.71538 4.99929 9.40542 6.50123 9.40542 8.12672V9.30871H8.33414C8.28572 9.30224 8.23646 9.30702 8.19018 9.32268C8.14391 9.33834 8.10187 9.36445 8.06733 9.399C8.03279 9.43354 8.00667 9.47558 7.99101 9.52185C7.97535 9.56812 7.97057 9.61738 7.97704 9.6658V11.8084C7.97057 11.8568 7.97535 11.906 7.99101 11.9523C8.00667 11.9986 8.03279 12.0406 8.06733 12.0752C8.10187 12.1097 8.14391 12.1358 8.19018 12.1515C8.23646 12.1672 8.28572 12.1719 8.33414 12.1655H9.40542V17.5219C9.39947 17.5704 9.40468 17.6196 9.42067 17.6658C9.43665 17.712 9.46298 17.7539 9.49764 17.7884C9.5323 17.8228 9.57437 17.8489 9.62065 17.8646C9.66693 17.8803 9.71619 17.8852 9.76466 17.879H11.9465C12.1572 17.9033 12.3279 17.7326 12.2607 17.5219L12.2622 12.1655H14.0477C14.0961 12.1719 14.1453 12.1672 14.1916 12.1515C14.2379 12.1358 14.2799 12.1097 14.3145 12.0752C14.349 12.0406 14.3751 11.9986 14.3908 11.9523C14.4064 11.906 14.4112 11.8568 14.4047 11.8084V9.6658C14.4112 9.61738 14.4064 9.56812 14.3908 9.52185C14.3751 9.47558 14.349 9.43354 14.3145 9.399C14.2799 9.36445 14.2379 9.33834 14.1916 9.32268C14.1453 9.30702 14.0961 9.30224 14.0477 9.30871H12.26L12.2622 8.23742C12.3315 7.78106 12.3315 7.85533 12.755 7.88033H14.0327C14.1319 7.85819 14.2376 7.87033 14.3119 7.7982C14.3862 7.72606 14.429 7.62751 14.404 7.52323V5.38067C14.4106 5.33228 14.406 5.28303 14.3904 5.23675C14.3748 5.19047 14.3488 5.14841 14.3143 5.11385C14.2798 5.07929 14.2378 5.05316 14.1915 5.0375C14.1453 5.02184 14.096 5.01707 14.0477 5.02357ZM13.6656 7.12614L12.77 7.09186C11.6608 7.09186 11.568 7.69393 11.568 8.31027L11.5651 9.66437C11.565 9.71452 11.5748 9.76419 11.594 9.81054C11.6131 9.85689 11.6412 9.89902 11.6766 9.93451C11.712 9.97 11.7541 9.99816 11.8004 10.0174C11.8467 10.0366 11.8964 10.0465 11.9465 10.0465H13.6906V11.4263H11.9479C11.8467 11.4263 11.7496 11.4664 11.678 11.5379C11.6064 11.6094 11.566 11.7064 11.5658 11.8077L11.5651 17.1648H10.1196V11.8084C10.1196 11.5977 9.97606 11.427 9.76466 11.427H8.69123V10.0472H9.76466C9.81477 10.0473 9.8644 10.0375 9.91073 10.0183C9.95705 9.99922 9.99915 9.97116 10.0346 9.93577C10.106 9.86363 10.1189 9.7665 10.1189 9.66509V8.12601C10.1189 6.5248 10.4424 5.76204 12.1415 5.76204H13.6648V7.12614H13.6656Z" fill="white"/>
</g>
</svg>
