<svg width="23" height="23" viewBox="0 0 23 23" fill="none" xmlns="http://www.w3.org/2000/svg">
<path id="Vector" d="M11.4513 6.07621C10.3882 6.07621 9.349 6.39145 8.46507 6.98208C7.58113 7.5727 6.89219 8.41218 6.48536 9.39435C6.07853 10.3765 5.97209 11.4573 6.17949 12.4999C6.38689 13.5426 6.89882 14.5004 7.65054 15.2521C8.40226 16.0038 9.36001 16.5157 10.4027 16.7231C11.4454 16.9305 12.5261 16.8241 13.5083 16.4173C14.4905 16.0104 15.3299 15.3215 15.9206 14.4376C16.5112 13.5536 16.8264 12.5144 16.8264 11.4513C16.8248 10.0262 16.258 8.66 15.2503 7.65232C14.2426 6.64464 12.8764 6.07782 11.4513 6.07621ZM11.4513 15.4242C10.6655 15.4242 9.89743 15.1912 9.24409 14.7547C8.59075 14.3181 8.08153 13.6976 7.78083 12.9717C7.48013 12.2457 7.40145 11.4469 7.55475 10.6762C7.70804 9.90557 8.08643 9.19767 8.64205 8.64205C9.19767 8.08643 9.90557 7.70804 10.6762 7.55475C11.4469 7.40145 12.2457 7.48013 12.9717 7.78083C13.6976 8.08153 14.3181 8.59075 14.7547 9.24409C15.1912 9.89743 15.4242 10.6655 15.4242 11.4513C15.423 12.5046 15.0041 13.5144 14.2593 14.2593C13.5144 15.0041 12.5046 15.423 11.4513 15.4242ZM16.5927 0H6.30991C4.63701 0.00191744 3.03317 0.667325 1.85025 1.85025C0.667325 3.03317 0.00191744 4.63701 0 6.30991V16.5927C0.00191744 18.2656 0.667325 19.8695 1.85025 21.0524C3.03317 22.2353 4.63701 22.9007 6.30991 22.9026H16.5927C18.2656 22.9007 19.8695 22.2353 21.0524 21.0524C22.2353 19.8695 22.9007 18.2656 22.9026 16.5927V6.30991C22.9007 4.63701 22.2353 3.03317 21.0524 1.85025C19.8695 0.667325 18.2656 0.00191744 16.5927 0ZM21.5004 16.5927C21.499 17.8939 20.9814 19.1413 20.0614 20.0614C19.1413 20.9814 17.8939 21.499 16.5927 21.5004H6.30991C5.00875 21.499 3.7613 20.9814 2.84124 20.0614C1.92118 19.1413 1.40366 17.8939 1.4022 16.5927V6.30991C1.40366 5.00875 1.92118 3.7613 2.84124 2.84124C3.7613 1.92118 5.00875 1.40366 6.30991 1.4022H16.5927C17.8939 1.40366 19.1413 1.92118 20.0614 2.84124C20.9814 3.7613 21.499 5.00875 21.5004 6.30991V16.5927ZM18.696 5.37511C18.696 5.60622 18.6275 5.83213 18.4991 6.02429C18.3707 6.21645 18.1882 6.36622 17.9747 6.45466C17.7612 6.5431 17.5262 6.56624 17.2996 6.52116C17.0729 6.47607 16.8647 6.36478 16.7013 6.20136C16.5378 6.03794 16.4266 5.82974 16.3815 5.60307C16.3364 5.3764 16.3595 5.14146 16.448 4.92794C16.5364 4.71443 16.6862 4.53193 16.8783 4.40353C17.0705 4.27514 17.2964 4.20661 17.5275 4.20661C17.8373 4.20698 18.1343 4.33021 18.3534 4.54926C18.5724 4.76832 18.6957 5.06532 18.696 5.37511Z" fill="white"/>
</svg>
