<svg width="24" height="23" viewBox="0 0 24 23" fill="none" xmlns="http://www.w3.org/2000/svg">
<g id="Group">
<path id="Vector" d="M12.153 0C5.83881 0 0.700928 5.13645 0.700928 11.4513C0.700928 17.7662 5.83881 22.9026 12.153 22.9026C18.4671 22.9026 23.605 17.7662 23.605 11.4513C23.605 5.13645 18.4671 0 12.153 0ZM12.153 22.1399C6.25946 22.1399 1.46511 17.3448 1.46511 11.4513C1.46511 5.55782 6.25946 0.762754 12.153 0.762754C18.0464 0.762754 22.8408 5.55782 22.8408 11.4513C22.8408 17.3448 18.0464 22.1399 12.153 22.1399Z" fill="white"/>
<path id="Vector_2" d="M18.4335 7.91309C18.5128 7.76645 18.578 7.6127 18.6285 7.45386C18.6519 7.38019 18.6524 7.30115 18.6299 7.2272C18.6074 7.15325 18.563 7.08786 18.5026 7.03966C18.4421 6.99146 18.3685 6.96271 18.2914 6.95723C18.2143 6.95174 18.1374 6.96977 18.0707 7.00892C17.7048 7.22633 17.3086 7.3883 16.8952 7.48957C16.3933 7.03662 15.7415 6.78551 15.0654 6.78467C14.6981 6.78495 14.3347 6.8594 13.9968 7.00354C13.659 7.14768 13.3538 7.35856 13.0994 7.62352C12.845 7.88849 12.6468 8.20209 12.5166 8.54552C12.3863 8.88895 12.3268 9.25514 12.3415 9.62214C10.7353 9.41994 9.26858 8.60717 8.24563 7.35245C8.20643 7.30491 8.15634 7.26754 8.09961 7.24351C8.04289 7.21947 7.9812 7.20948 7.91978 7.21439C7.85837 7.2193 7.79905 7.23896 7.74685 7.27169C7.69466 7.30443 7.65114 7.34929 7.62 7.40244C7.38576 7.80448 7.25844 8.25983 7.25019 8.72505C7.24194 9.19027 7.35303 9.64985 7.57286 10.0599C7.51894 10.069 7.46715 10.0879 7.42002 10.1156C7.36228 10.1525 7.31474 10.2032 7.28178 10.2633C7.24883 10.3233 7.23153 10.3907 7.23148 10.4592C7.23148 11.2698 7.59214 12.014 8.17349 12.5196L8.1485 12.5446C8.10461 12.5943 8.07441 12.6545 8.06089 12.7194C8.04736 12.7842 8.05097 12.8515 8.07136 12.9146C8.19259 13.2927 8.395 13.6399 8.66443 13.9316C8.93386 14.2234 9.2638 14.4527 9.63115 14.6036C8.87668 14.9717 8.03234 15.1152 7.19862 15.0171C7.11293 15.0084 7.02675 15.0283 6.9536 15.0738C6.88045 15.1193 6.82445 15.1878 6.79439 15.2685C6.76552 15.3499 6.76498 15.4385 6.79286 15.5202C6.82073 15.6019 6.87538 15.6718 6.94794 15.7185C8.08137 16.4459 9.39994 16.8324 10.7467 16.8319C15.1604 16.8319 17.7986 13.2467 17.7986 9.78069L17.7979 9.66357C18.2257 9.32962 18.5972 8.92938 18.8985 8.47801C18.9441 8.40978 18.9665 8.32866 18.9625 8.24668C18.9584 8.1647 18.928 8.08622 18.8759 8.02284C18.8237 7.95946 18.7525 7.91457 18.6729 7.8948C18.5932 7.87503 18.5093 7.88144 18.4335 7.91309ZM17.1873 9.16649C17.1355 9.20376 17.0938 9.25341 17.0661 9.31093C17.0384 9.36844 17.0256 9.43198 17.0287 9.49573C17.033 9.59 17.0352 9.68571 17.0352 9.77998C17.0352 12.871 14.6833 16.0684 10.7474 16.0684C10.0455 16.0687 9.34844 15.9509 8.68557 15.7199C9.47946 15.5677 10.2252 15.2273 10.8603 14.7272C10.9221 14.6784 10.9673 14.6118 10.9898 14.5364C11.0124 14.4609 11.011 14.3804 10.986 14.3057C10.961 14.2311 10.9135 14.166 10.8501 14.1193C10.7867 14.0727 10.7104 14.0468 10.6317 14.0451C10.3238 14.0392 10.0215 13.9611 9.74937 13.8169C9.47719 13.6728 9.24269 13.4667 9.0648 13.2152C9.24549 13.2031 9.42261 13.1731 9.59473 13.1267C9.67803 13.1044 9.75132 13.0545 9.80263 12.9852C9.85395 12.9159 9.88026 12.8312 9.87728 12.7451C9.87429 12.6589 9.84219 12.5763 9.78621 12.5107C9.73022 12.4451 9.65366 12.4004 9.56902 12.3839C9.22123 12.3132 8.89921 12.1492 8.63742 11.9095C8.37563 11.6699 8.18392 11.3636 8.08279 11.0234C8.27277 11.0712 8.46774 11.0991 8.66271 11.1055C8.83055 11.1048 8.98624 11.002 9.03838 10.8406C9.09051 10.6791 9.02909 10.5013 8.88697 10.407C8.55092 10.1831 8.29218 9.86098 8.14608 9.48453C7.99997 9.10809 7.97363 8.69572 8.07065 8.30375C9.31122 9.57666 10.9864 10.3347 12.7614 10.4263C12.8871 10.427 12.9971 10.382 13.0735 10.2899C13.15 10.1978 13.1792 10.0757 13.1521 9.95853C13.0544 9.53787 13.0981 9.09674 13.2764 8.70342C13.4547 8.31009 13.7577 7.9865 14.1384 7.78271C14.5192 7.57892 14.9565 7.5063 15.3826 7.57609C15.8088 7.64588 16.2001 7.85418 16.4959 8.16877C16.5403 8.21608 16.5959 8.25132 16.6577 8.27119C16.7194 8.29105 16.7851 8.29489 16.8488 8.28232C16.9666 8.25876 17.083 8.23162 17.198 8.20019C17.1462 8.239 17.0923 8.275 17.0366 8.30803C16.9625 8.3534 16.9061 8.42264 16.8767 8.50435C16.8473 8.58606 16.8465 8.67536 16.8746 8.75754C16.9028 8.83971 16.958 8.90986 17.0313 8.95641C17.1047 9.00297 17.1917 9.02316 17.278 9.01365L17.408 8.99723C17.3364 9.05619 17.2628 9.11264 17.1873 9.16649Z" fill="white"/>
</g>
</svg>
